G04 #@! TF.GenerationSoftware,KiCad,Pcbnew,6.0.2+dfsg-1*
G04 #@! TF.CreationDate,2023-08-17T23:32:23+01:00*
G04 #@! TF.ProjectId,TriboeletricSampler,54726962-6f65-46c6-9574-72696353616d,rev?*
G04 #@! TF.SameCoordinates,Original*
G04 #@! TF.FileFunction,Soldermask,Top*
G04 #@! TF.FilePolarity,Negative*
%FSLAX46Y46*%
G04 Gerber Fmt 4.6, Leading zero omitted, Abs format (unit mm)*
G04 Created by KiCad (PCBNEW 6.0.2+dfsg-1) date 2023-08-17 23:32:23*
%MOMM*%
%LPD*%
G01*
G04 APERTURE LIST*
G04 Aperture macros list*
%AMRoundRect*
0 Rectangle with rounded corners*
0 $1 Rounding radius*
0 $2 $3 $4 $5 $6 $7 $8 $9 X,Y pos of 4 corners*
0 Add a 4 corners polygon primitive as box body*
4,1,4,$2,$3,$4,$5,$6,$7,$8,$9,$2,$3,0*
0 Add four circle primitives for the rounded corners*
1,1,$1+$1,$2,$3*
1,1,$1+$1,$4,$5*
1,1,$1+$1,$6,$7*
1,1,$1+$1,$8,$9*
0 Add four rect primitives between the rounded corners*
20,1,$1+$1,$2,$3,$4,$5,0*
20,1,$1+$1,$4,$5,$6,$7,0*
20,1,$1+$1,$6,$7,$8,$9,0*
20,1,$1+$1,$8,$9,$2,$3,0*%
G04 Aperture macros list end*
%ADD10RoundRect,0.250000X-0.425000X0.450000X-0.425000X-0.450000X0.425000X-0.450000X0.425000X0.450000X0*%
%ADD11RoundRect,0.250000X-0.550000X1.250000X-0.550000X-1.250000X0.550000X-1.250000X0.550000X1.250000X0*%
%ADD12RoundRect,0.250000X0.625000X-0.312500X0.625000X0.312500X-0.625000X0.312500X-0.625000X-0.312500X0*%
%ADD13RoundRect,0.250000X0.312500X0.625000X-0.312500X0.625000X-0.312500X-0.625000X0.312500X-0.625000X0*%
%ADD14RoundRect,0.250000X-0.625000X0.312500X-0.625000X-0.312500X0.625000X-0.312500X0.625000X0.312500X0*%
%ADD15RoundRect,0.250000X-0.312500X-0.625000X0.312500X-0.625000X0.312500X0.625000X-0.312500X0.625000X0*%
%ADD16RoundRect,0.250000X-0.450000X0.262500X-0.450000X-0.262500X0.450000X-0.262500X0.450000X0.262500X0*%
%ADD17RoundRect,0.250000X0.625000X-0.375000X0.625000X0.375000X-0.625000X0.375000X-0.625000X-0.375000X0*%
%ADD18R,1.130000X1.130000*%
%ADD19C,1.130000*%
%ADD20R,0.800000X0.900000*%
%ADD21RoundRect,0.250000X-0.262500X-0.450000X0.262500X-0.450000X0.262500X0.450000X-0.262500X0.450000X0*%
%ADD22R,1.700000X1.700000*%
%ADD23O,1.700000X1.700000*%
%ADD24R,1.358000X1.358000*%
%ADD25C,1.358000*%
%ADD26R,1.100000X1.500000*%
%ADD27R,3.960000X3.170000*%
G04 APERTURE END LIST*
D10*
X174830825Y-67031045D03*
X174830825Y-69731045D03*
X178457974Y-67005836D03*
X178457974Y-69705836D03*
D11*
X171931105Y-101993430D03*
X171931105Y-106393430D03*
D12*
X203809778Y-103123195D03*
X203809778Y-100198195D03*
D13*
X173651336Y-80749561D03*
X170726336Y-80749561D03*
D14*
X172771695Y-95655624D03*
X172771695Y-98580624D03*
D15*
X176585485Y-78022019D03*
X179510485Y-78022019D03*
D16*
X177987233Y-72372611D03*
X177987233Y-74197611D03*
D17*
X203784586Y-97946580D03*
X203784586Y-95146580D03*
D13*
X197454336Y-92364583D03*
X194529336Y-92364583D03*
D18*
X188638522Y-85039609D03*
D19*
X186098522Y-85039609D03*
X183558522Y-85039609D03*
X181018522Y-85039609D03*
X178478522Y-85039609D03*
X175938522Y-85039609D03*
X173398522Y-85039609D03*
X170858522Y-85039609D03*
X170858522Y-92979609D03*
X173398522Y-92979609D03*
X175938522Y-92979609D03*
X178478522Y-92979609D03*
X181018522Y-92979609D03*
X183558522Y-92979609D03*
X186098522Y-92979609D03*
X188638522Y-92979609D03*
D20*
X195455718Y-89534959D03*
X194505718Y-87534959D03*
X193555718Y-89534959D03*
D21*
X171277401Y-74541554D03*
X173102401Y-74541554D03*
D22*
X202560755Y-62723445D03*
D23*
X202560755Y-65263445D03*
X202560755Y-67803445D03*
X202560755Y-70343445D03*
X202560755Y-72883445D03*
X202560755Y-75423445D03*
X202560755Y-77963445D03*
X202560755Y-80503445D03*
X202560755Y-83043445D03*
X202560755Y-85583445D03*
X202560755Y-88123445D03*
X202560755Y-90663445D03*
D13*
X173633237Y-78010188D03*
X170708237Y-78010188D03*
D15*
X176599292Y-80742060D03*
X179524292Y-80742060D03*
D22*
X175860755Y-63500000D03*
D23*
X178400755Y-63500000D03*
D24*
X183071062Y-64866330D03*
D25*
X183071062Y-67406330D03*
X183071062Y-69946330D03*
X183071062Y-72486330D03*
X183071062Y-75026330D03*
X183071062Y-77566330D03*
X183071062Y-80106330D03*
X198311062Y-80106330D03*
X198311062Y-77566330D03*
X198311062Y-75026330D03*
X198311062Y-72486330D03*
X198311062Y-69946330D03*
X198311062Y-67406330D03*
X198311062Y-64866330D03*
D26*
X171561331Y-110581511D03*
X171561331Y-119481511D03*
D27*
X178238420Y-107051931D03*
X199998420Y-107051931D03*
M02*
