%FSLAX45Y45*%
G04 Gerber Fmt 4.5, Leading zero omitted, Abs format (unit mm)*
G04 Created by KiCad (PCBNEW 6.0.2+dfsg-1) date 2023-08-17 23:32:11*
%MOMM*%
%LPD*%
G01*
G04 APERTURE LIST*
%TA.AperFunction,Profile*%
%ADD10C,0.100000*%
%TD*%
%ADD11C,0.200000*%
G04 APERTURE END LIST*
D10*
X17168026Y-6604000D02*
G75*
G03*
X17168026Y-6604000I-150026J0D01*
G01*
X20320000Y-5842000D02*
X20574000Y-6096000D01*
X20066000Y-12192000D02*
X17018000Y-12192000D01*
X20574000Y-11684000D02*
X20066000Y-12192000D01*
X17272000Y-5842000D02*
X20320000Y-5842000D01*
X20574000Y-6096000D02*
X20574000Y-11684000D01*
X17018000Y-12192000D02*
X16764000Y-11938000D01*
X20470000Y-11430000D02*
G75*
G03*
X20470000Y-11430000I-150000J0D01*
G01*
X16764000Y-11938000D02*
X16764000Y-6350000D01*
X16764000Y-6350000D02*
X17272000Y-5842000D01*
D11*
X17016619Y-12507476D02*
X17016619Y-12307476D01*
X17064238Y-12307476D01*
X17092810Y-12317000D01*
X17111857Y-12336048D01*
X17121381Y-12355095D01*
X17130905Y-12393190D01*
X17130905Y-12421762D01*
X17121381Y-12459857D01*
X17111857Y-12478905D01*
X17092810Y-12497952D01*
X17064238Y-12507476D01*
X17016619Y-12507476D01*
X17216619Y-12507476D02*
X17216619Y-12374143D01*
X17216619Y-12412238D02*
X17226143Y-12393190D01*
X17235667Y-12383667D01*
X17254714Y-12374143D01*
X17273762Y-12374143D01*
X17340429Y-12507476D02*
X17340429Y-12374143D01*
X17340429Y-12307476D02*
X17330905Y-12317000D01*
X17340429Y-12326524D01*
X17349952Y-12317000D01*
X17340429Y-12307476D01*
X17340429Y-12326524D01*
X17464238Y-12507476D02*
X17445190Y-12497952D01*
X17435667Y-12478905D01*
X17435667Y-12307476D01*
X17569000Y-12507476D02*
X17549952Y-12497952D01*
X17540429Y-12478905D01*
X17540429Y-12307476D01*
X17797571Y-12507476D02*
X17797571Y-12307476D01*
X17864238Y-12450333D01*
X17930905Y-12307476D01*
X17930905Y-12507476D01*
X18111857Y-12507476D02*
X18111857Y-12402714D01*
X18102333Y-12383667D01*
X18083286Y-12374143D01*
X18045190Y-12374143D01*
X18026143Y-12383667D01*
X18111857Y-12497952D02*
X18092810Y-12507476D01*
X18045190Y-12507476D01*
X18026143Y-12497952D01*
X18016619Y-12478905D01*
X18016619Y-12459857D01*
X18026143Y-12440809D01*
X18045190Y-12431286D01*
X18092810Y-12431286D01*
X18111857Y-12421762D01*
X18207095Y-12374143D02*
X18207095Y-12574143D01*
X18207095Y-12383667D02*
X18226143Y-12374143D01*
X18264238Y-12374143D01*
X18283286Y-12383667D01*
X18292810Y-12393190D01*
X18302333Y-12412238D01*
X18302333Y-12469381D01*
X18292810Y-12488428D01*
X18283286Y-12497952D01*
X18264238Y-12507476D01*
X18226143Y-12507476D01*
X18207095Y-12497952D01*
X18388048Y-12488428D02*
X18397571Y-12497952D01*
X18388048Y-12507476D01*
X18378524Y-12497952D01*
X18388048Y-12488428D01*
X18388048Y-12507476D01*
X18388048Y-12383667D02*
X18397571Y-12393190D01*
X18388048Y-12402714D01*
X18378524Y-12393190D01*
X18388048Y-12383667D01*
X18388048Y-12402714D01*
M02*
