G04 #@! TF.GenerationSoftware,KiCad,Pcbnew,6.0.2+dfsg-1*
G04 #@! TF.CreationDate,2023-08-17T23:32:23+01:00*
G04 #@! TF.ProjectId,TriboeletricSampler,54726962-6f65-46c6-9574-72696353616d,rev?*
G04 #@! TF.SameCoordinates,Original*
G04 #@! TF.FileFunction,Soldermask,Bot*
G04 #@! TF.FilePolarity,Negative*
%FSLAX46Y46*%
G04 Gerber Fmt 4.6, Leading zero omitted, Abs format (unit mm)*
G04 Created by KiCad (PCBNEW 6.0.2+dfsg-1) date 2023-08-17 23:32:23*
%MOMM*%
%LPD*%
G01*
G04 APERTURE LIST*
G04 Aperture macros list*
%AMRoundRect*
0 Rectangle with rounded corners*
0 $1 Rounding radius*
0 $2 $3 $4 $5 $6 $7 $8 $9 X,Y pos of 4 corners*
0 Add a 4 corners polygon primitive as box body*
4,1,4,$2,$3,$4,$5,$6,$7,$8,$9,$2,$3,0*
0 Add four circle primitives for the rounded corners*
1,1,$1+$1,$2,$3*
1,1,$1+$1,$4,$5*
1,1,$1+$1,$6,$7*
1,1,$1+$1,$8,$9*
0 Add four rect primitives between the rounded corners*
20,1,$1+$1,$2,$3,$4,$5,0*
20,1,$1+$1,$4,$5,$6,$7,0*
20,1,$1+$1,$6,$7,$8,$9,0*
20,1,$1+$1,$8,$9,$2,$3,0*%
G04 Aperture macros list end*
%ADD10R,1.130000X1.130000*%
%ADD11C,1.130000*%
%ADD12R,1.700000X1.700000*%
%ADD13O,1.700000X1.700000*%
%ADD14R,1.358000X1.358000*%
%ADD15C,1.358000*%
%ADD16RoundRect,0.250000X-0.625000X0.312500X-0.625000X-0.312500X0.625000X-0.312500X0.625000X0.312500X0*%
G04 APERTURE END LIST*
D10*
X188638522Y-85039609D03*
D11*
X186098522Y-85039609D03*
X183558522Y-85039609D03*
X181018522Y-85039609D03*
X178478522Y-85039609D03*
X175938522Y-85039609D03*
X173398522Y-85039609D03*
X170858522Y-85039609D03*
X170858522Y-92979609D03*
X173398522Y-92979609D03*
X175938522Y-92979609D03*
X178478522Y-92979609D03*
X181018522Y-92979609D03*
X183558522Y-92979609D03*
X186098522Y-92979609D03*
X188638522Y-92979609D03*
D12*
X202560755Y-62723445D03*
D13*
X202560755Y-65263445D03*
X202560755Y-67803445D03*
X202560755Y-70343445D03*
X202560755Y-72883445D03*
X202560755Y-75423445D03*
X202560755Y-77963445D03*
X202560755Y-80503445D03*
X202560755Y-83043445D03*
X202560755Y-85583445D03*
X202560755Y-88123445D03*
X202560755Y-90663445D03*
D12*
X175860755Y-63500000D03*
D13*
X178400755Y-63500000D03*
D14*
X183071062Y-64866330D03*
D15*
X183071062Y-67406330D03*
X183071062Y-69946330D03*
X183071062Y-72486330D03*
X183071062Y-75026330D03*
X183071062Y-77566330D03*
X183071062Y-80106330D03*
X198311062Y-80106330D03*
X198311062Y-77566330D03*
X198311062Y-75026330D03*
X198311062Y-72486330D03*
X198311062Y-69946330D03*
X198311062Y-67406330D03*
X198311062Y-64866330D03*
D16*
X171337108Y-87504503D03*
X171337108Y-90429503D03*
M02*
