G04 #@! TF.GenerationSoftware,KiCad,Pcbnew,6.0.2+dfsg-1*
G04 #@! TF.CreationDate,2023-08-17T23:32:23+01:00*
G04 #@! TF.ProjectId,TriboeletricSampler,54726962-6f65-46c6-9574-72696353616d,rev?*
G04 #@! TF.SameCoordinates,Original*
G04 #@! TF.FileFunction,Copper,L1,Top*
G04 #@! TF.FilePolarity,Positive*
%FSLAX46Y46*%
G04 Gerber Fmt 4.6, Leading zero omitted, Abs format (unit mm)*
G04 Created by KiCad (PCBNEW 6.0.2+dfsg-1) date 2023-08-17 23:32:23*
%MOMM*%
%LPD*%
G01*
G04 APERTURE LIST*
G04 Aperture macros list*
%AMRoundRect*
0 Rectangle with rounded corners*
0 $1 Rounding radius*
0 $2 $3 $4 $5 $6 $7 $8 $9 X,Y pos of 4 corners*
0 Add a 4 corners polygon primitive as box body*
4,1,4,$2,$3,$4,$5,$6,$7,$8,$9,$2,$3,0*
0 Add four circle primitives for the rounded corners*
1,1,$1+$1,$2,$3*
1,1,$1+$1,$4,$5*
1,1,$1+$1,$6,$7*
1,1,$1+$1,$8,$9*
0 Add four rect primitives between the rounded corners*
20,1,$1+$1,$2,$3,$4,$5,0*
20,1,$1+$1,$4,$5,$6,$7,0*
20,1,$1+$1,$6,$7,$8,$9,0*
20,1,$1+$1,$8,$9,$2,$3,0*%
G04 Aperture macros list end*
G04 #@! TA.AperFunction,SMDPad,CuDef*
%ADD10RoundRect,0.250000X-0.425000X0.450000X-0.425000X-0.450000X0.425000X-0.450000X0.425000X0.450000X0*%
G04 #@! TD*
G04 #@! TA.AperFunction,SMDPad,CuDef*
%ADD11RoundRect,0.250000X-0.550000X1.250000X-0.550000X-1.250000X0.550000X-1.250000X0.550000X1.250000X0*%
G04 #@! TD*
G04 #@! TA.AperFunction,SMDPad,CuDef*
%ADD12RoundRect,0.250000X0.625000X-0.312500X0.625000X0.312500X-0.625000X0.312500X-0.625000X-0.312500X0*%
G04 #@! TD*
G04 #@! TA.AperFunction,SMDPad,CuDef*
%ADD13RoundRect,0.250000X0.312500X0.625000X-0.312500X0.625000X-0.312500X-0.625000X0.312500X-0.625000X0*%
G04 #@! TD*
G04 #@! TA.AperFunction,SMDPad,CuDef*
%ADD14RoundRect,0.250000X-0.625000X0.312500X-0.625000X-0.312500X0.625000X-0.312500X0.625000X0.312500X0*%
G04 #@! TD*
G04 #@! TA.AperFunction,SMDPad,CuDef*
%ADD15RoundRect,0.250000X-0.312500X-0.625000X0.312500X-0.625000X0.312500X0.625000X-0.312500X0.625000X0*%
G04 #@! TD*
G04 #@! TA.AperFunction,SMDPad,CuDef*
%ADD16RoundRect,0.250000X-0.450000X0.262500X-0.450000X-0.262500X0.450000X-0.262500X0.450000X0.262500X0*%
G04 #@! TD*
G04 #@! TA.AperFunction,SMDPad,CuDef*
%ADD17RoundRect,0.250000X0.625000X-0.375000X0.625000X0.375000X-0.625000X0.375000X-0.625000X-0.375000X0*%
G04 #@! TD*
G04 #@! TA.AperFunction,ComponentPad*
%ADD18R,1.130000X1.130000*%
G04 #@! TD*
G04 #@! TA.AperFunction,ComponentPad*
%ADD19C,1.130000*%
G04 #@! TD*
G04 #@! TA.AperFunction,SMDPad,CuDef*
%ADD20R,0.800000X0.900000*%
G04 #@! TD*
G04 #@! TA.AperFunction,SMDPad,CuDef*
%ADD21RoundRect,0.250000X-0.262500X-0.450000X0.262500X-0.450000X0.262500X0.450000X-0.262500X0.450000X0*%
G04 #@! TD*
G04 #@! TA.AperFunction,ComponentPad*
%ADD22R,1.700000X1.700000*%
G04 #@! TD*
G04 #@! TA.AperFunction,ComponentPad*
%ADD23O,1.700000X1.700000*%
G04 #@! TD*
G04 #@! TA.AperFunction,ComponentPad*
%ADD24R,1.358000X1.358000*%
G04 #@! TD*
G04 #@! TA.AperFunction,ComponentPad*
%ADD25C,1.358000*%
G04 #@! TD*
G04 #@! TA.AperFunction,SMDPad,CuDef*
%ADD26R,1.100000X1.500000*%
G04 #@! TD*
G04 #@! TA.AperFunction,SMDPad,CuDef*
%ADD27R,3.960000X3.170000*%
G04 #@! TD*
G04 #@! TA.AperFunction,Conductor*
%ADD28C,0.250000*%
G04 #@! TD*
G04 APERTURE END LIST*
D10*
X174830825Y-67031045D03*
X174830825Y-69731045D03*
X178457974Y-67005836D03*
X178457974Y-69705836D03*
D11*
X171931105Y-101993430D03*
X171931105Y-106393430D03*
D12*
X203809778Y-103123195D03*
X203809778Y-100198195D03*
D13*
X173651336Y-80749561D03*
X170726336Y-80749561D03*
D14*
X172771695Y-95655624D03*
X172771695Y-98580624D03*
D15*
X176585485Y-78022019D03*
X179510485Y-78022019D03*
D16*
X177987233Y-72372611D03*
X177987233Y-74197611D03*
D17*
X203784586Y-97946580D03*
X203784586Y-95146580D03*
D13*
X197454336Y-92364583D03*
X194529336Y-92364583D03*
D18*
X188638522Y-85039609D03*
D19*
X186098522Y-85039609D03*
X183558522Y-85039609D03*
X181018522Y-85039609D03*
X178478522Y-85039609D03*
X175938522Y-85039609D03*
X173398522Y-85039609D03*
X170858522Y-85039609D03*
X170858522Y-92979609D03*
X173398522Y-92979609D03*
X175938522Y-92979609D03*
X178478522Y-92979609D03*
X181018522Y-92979609D03*
X183558522Y-92979609D03*
X186098522Y-92979609D03*
X188638522Y-92979609D03*
D20*
X195455718Y-89534959D03*
X194505718Y-87534959D03*
X193555718Y-89534959D03*
D21*
X171277401Y-74541554D03*
X173102401Y-74541554D03*
D22*
X202560755Y-62723445D03*
D23*
X202560755Y-65263445D03*
X202560755Y-67803445D03*
X202560755Y-70343445D03*
X202560755Y-72883445D03*
X202560755Y-75423445D03*
X202560755Y-77963445D03*
X202560755Y-80503445D03*
X202560755Y-83043445D03*
X202560755Y-85583445D03*
X202560755Y-88123445D03*
X202560755Y-90663445D03*
D13*
X173633237Y-78010188D03*
X170708237Y-78010188D03*
D15*
X176599292Y-80742060D03*
X179524292Y-80742060D03*
D22*
X175860755Y-63500000D03*
D23*
X178400755Y-63500000D03*
D24*
X183071062Y-64866330D03*
D25*
X183071062Y-67406330D03*
X183071062Y-69946330D03*
X183071062Y-72486330D03*
X183071062Y-75026330D03*
X183071062Y-77566330D03*
X183071062Y-80106330D03*
X198311062Y-80106330D03*
X198311062Y-77566330D03*
X198311062Y-75026330D03*
X198311062Y-72486330D03*
X198311062Y-69946330D03*
X198311062Y-67406330D03*
X198311062Y-64866330D03*
D26*
X171561331Y-110581511D03*
X171561331Y-119481511D03*
D27*
X178238420Y-107051931D03*
X199998420Y-107051931D03*
D28*
X174830825Y-69731045D02*
X174830825Y-70988130D01*
X174830825Y-70988130D02*
X171277401Y-74541554D01*
X178457974Y-69705836D02*
X177987233Y-70176577D01*
X177987233Y-70176577D02*
X177987233Y-72372611D01*
X174830825Y-67031045D02*
X175860755Y-66001115D01*
X175860755Y-66001115D02*
X175860755Y-63500000D01*
X178457974Y-67005836D02*
X178400755Y-66948617D01*
X178400755Y-66948617D02*
X178400755Y-63500000D01*
X182067551Y-65869841D02*
X183071062Y-64866330D01*
X172771695Y-98580624D02*
X179716950Y-98580624D01*
X171931105Y-101993430D02*
X172771695Y-101152840D01*
X179716950Y-98580624D02*
X182067551Y-96230023D01*
X182067551Y-96230023D02*
X182067551Y-65869841D01*
X172771695Y-101152840D02*
X172771695Y-98580624D01*
X193555718Y-89534959D02*
X188053872Y-89534959D01*
X188053872Y-89534959D02*
X183558522Y-85039609D01*
X203809778Y-103123195D02*
X203809778Y-103240573D01*
X197307551Y-80965959D02*
X198120000Y-81778408D01*
X199998420Y-107051931D02*
X199998420Y-90685780D01*
X193555718Y-95627483D02*
X185231601Y-103951600D01*
X170708237Y-78010188D02*
X169839316Y-78879109D01*
X198120000Y-81778408D02*
X198120000Y-88900000D01*
X198120000Y-88900000D02*
X199905780Y-90685780D01*
X174372935Y-103951600D02*
X171931105Y-106393430D01*
X185231601Y-103951600D02*
X174372935Y-103951600D01*
X199998420Y-90685780D02*
X202560755Y-88123445D01*
X199905780Y-90685780D02*
X199998420Y-90685780D01*
X203809778Y-103240573D02*
X199998420Y-107051931D01*
X198311062Y-67406330D02*
X197307551Y-68409841D01*
X169839316Y-85278363D02*
X177540562Y-92979609D01*
X177540562Y-92979609D02*
X178478522Y-92979609D01*
X169839316Y-78879109D02*
X169839316Y-85278363D01*
X197307551Y-68409841D02*
X197307551Y-80965959D01*
X193555718Y-89534959D02*
X193555718Y-95627483D01*
X198311062Y-81333752D02*
X202560755Y-85583445D01*
X198311062Y-80106330D02*
X198311062Y-81333752D01*
X198311062Y-78526581D02*
X202560755Y-82776274D01*
X198311062Y-77566330D02*
X198311062Y-78526581D01*
X198311062Y-75026330D02*
X198311062Y-75986581D01*
X198311062Y-75986581D02*
X202560755Y-80236274D01*
X198311062Y-72486330D02*
X198311062Y-73446581D01*
X198311062Y-73446581D02*
X202560755Y-77696274D01*
X176585485Y-80728253D02*
X176599292Y-80742060D01*
X176585485Y-78022019D02*
X176585485Y-80728253D01*
X177987233Y-74197611D02*
X177987233Y-76620271D01*
X175938522Y-81402830D02*
X175938522Y-85039609D01*
X176599292Y-80742060D02*
X175938522Y-81402830D01*
X177987233Y-76620271D02*
X176585485Y-78022019D01*
X173633237Y-78010188D02*
X173633237Y-80731462D01*
X173398522Y-81002375D02*
X173398522Y-85039609D01*
X173102401Y-74541554D02*
X173633237Y-75072390D01*
X173633237Y-75072390D02*
X173633237Y-78010188D01*
X172094057Y-86276496D02*
X179781635Y-86276496D01*
X179510485Y-78022019D02*
X179510485Y-80728253D01*
X179510485Y-80728253D02*
X179524292Y-80742060D01*
X170726336Y-80749561D02*
X172094057Y-82117282D01*
X179524292Y-80742060D02*
X179607880Y-80825648D01*
X181018522Y-85039609D02*
X179607880Y-83628967D01*
X179781635Y-86276496D02*
X181018522Y-85039609D01*
X179607880Y-80825648D02*
X179607880Y-83628967D01*
X172094057Y-82117282D02*
X172094057Y-86276496D01*
X194529336Y-88962319D02*
X194505718Y-88938701D01*
X194505718Y-88938701D02*
X194505718Y-87534959D01*
X203784586Y-91887276D02*
X202560755Y-90663445D01*
X194505718Y-87534959D02*
X191133872Y-87534959D01*
X203784586Y-95146580D02*
X203784586Y-91887276D01*
X194529336Y-92364583D02*
X194529336Y-88962319D01*
X194505718Y-68671674D02*
X198311062Y-64866330D01*
X191133872Y-87534959D02*
X188638522Y-85039609D01*
X194505718Y-87534959D02*
X194505718Y-68671674D01*
X172771695Y-93606436D02*
X173398522Y-92979609D01*
X172771695Y-95655624D02*
X172771695Y-93606436D01*
X171561331Y-110581511D02*
X174708840Y-110581511D01*
X174708840Y-110581511D02*
X178238420Y-107051931D01*
X171561331Y-119481511D02*
X171561331Y-118257588D01*
X171561331Y-118257588D02*
X197454336Y-92364583D01*
X203784586Y-100173003D02*
X203809778Y-100198195D01*
X203784586Y-97946580D02*
X203784586Y-100173003D01*
M02*
