M48
; DRILL file {KiCad 6.0.2+dfsg-1} date qui 17 ago 2023 23:32:12
; FORMAT={-:-/ absolute / metric / decimal}
; #@! TF.CreationDate,2023-08-17T23:32:12+01:00
; #@! TF.GenerationSoftware,Kicad,Pcbnew,6.0.2+dfsg-1
; #@! TF.FileFunction,Plated,1,2,PTH
FMAT,2
METRIC
; #@! TA.AperFunction,Plated,PTH,ComponentDrill
T1C0.730
; #@! TA.AperFunction,Plated,PTH,ComponentDrill
T2C0.850
; #@! TA.AperFunction,Plated,PTH,ComponentDrill
T3C1.000
%
G90
G05
T1
X170.859Y-85.04
X170.859Y-92.98
X173.399Y-85.04
X173.399Y-92.98
X175.939Y-85.04
X175.939Y-92.98
X178.479Y-85.04
X178.479Y-92.98
X181.019Y-85.04
X181.019Y-92.98
X183.559Y-85.04
X183.559Y-92.98
X186.099Y-85.04
X186.099Y-92.98
X188.639Y-85.04
X188.639Y-92.98
T2
X183.071Y-64.866
X183.071Y-67.406
X183.071Y-69.946
X183.071Y-72.486
X183.071Y-75.026
X183.071Y-77.566
X183.071Y-80.106
X198.311Y-64.866
X198.311Y-67.406
X198.311Y-69.946
X198.311Y-72.486
X198.311Y-75.026
X198.311Y-77.566
X198.311Y-80.106
T3
X175.861Y-63.5
X178.401Y-63.5
X202.561Y-62.723
X202.561Y-65.263
X202.561Y-67.803
X202.561Y-70.343
X202.561Y-72.883
X202.561Y-75.423
X202.561Y-77.963
X202.561Y-80.503
X202.561Y-83.043
X202.561Y-85.583
X202.561Y-88.123
X202.561Y-90.663
T0
M30
